<svg xmlns="http://www.w3.org/2000/svg" viewBox="0 0 400.27 120.08"><defs><style>.cls-1{font-size:13.7px;font-family:TradeGothicLH-ExpandedBold, Trade Gothic LH;font-weight:700;}.cls-1,.cls-2{fill:#fff;}</style></defs><title>site-logo</title><g id="Layer_2" data-name="Layer 2"><g id="Layer_1-2" data-name="Layer 1"><text class="cls-1" transform="translate(249.51 116.66) scale(1.02 1)">AT ISLA BLANCA</text><path class="cls-2" d="M89.3,113.85c-6.59-12.86-29.91-11-34.37-22.94C61.71,95.47,84.45,92.78,89.3,113.85Z"/><path class="cls-2" d="M79.82,57a20.16,20.16,0,0,1,2.36,6.14c1.28,6.33-1,11.82-6.2,14.69-.43.24-.86.45-1.28.65.3.29.62.58,1,.89,2.46,2.16,14,2.08,15.39-6.27C92.36,65.38,84.64,58.18,79.82,57Z"/><path class="cls-2" d="M78.42,54.86a25,25,0,0,0-3.25-3.6,25.7,25.7,0,0,0-14.62-6.49,31.23,31.23,0,0,0-3.21-.17A30.59,30.59,0,0,0,45.45,47a28.47,28.47,0,0,0-6.28,3.69V50c0-.07,0-.14,0-.21v-.08c0-.07,0-.14,0-.2v-.08c0-.17,0-.35,0-.52v-.05c0-.07,0-.13,0-.2v-.06a1.36,1.36,0,0,0,0-.2v0c0-.17-.05-.32-.07-.47v0c0-.07,0-.13,0-.19v0l0-.19v0c0-.14-.06-.28-.09-.41v0c0-.06,0-.12-.05-.18v0c0-.05,0-.11,0-.16v0c0-.12-.07-.24-.1-.35h0a1.42,1.42,0,0,1-.05-.16v0a1.21,1.21,0,0,1-.05-.14v0q-.09-.24-.18-.45h0a1,1,0,0,0-.07-.15,4.71,4.71,0,0,0-.38-.68,1.67,1.67,0,0,0-.68-1.21L36.6,43a1.42,1.42,0,0,0-.14-.36l0,0c.24-.19.49-.37.74-.55l.3.19a1.69,1.69,0,0,0,3.06-1,6.83,6.83,0,0,0-.12-1.27C52.28,33,67.5,32.58,77.64,42.21,85.17,50.24,81.44,53.57,78.42,54.86Zm-42.8-1.51,0-.08-.09-.2,0-.08c0-.09-.09-.17-.13-.25h0c0-.08-.09-.16-.13-.24l0-.07-.1-.17,0-.06c-.08-.15-.17-.29-.25-.42l0-.05a.86.86,0,0,1-.1-.16l0,0c-.08-.12-.15-.24-.23-.35l0,0L34.29,51l1.36-1-1.38,1-.21-.29h0a1.47,1.47,0,0,0-.1-.13h0a4.86,4.86,0,0,0-.8-.82,1.56,1.56,0,0,1-.82-1h0l-.56-.44c0,.76,0,1.45-.07,1.89v.05a1.72,1.72,0,0,1-.11.5,1.14,1.14,0,0,1,0,.37,14.26,14.26,0,0,1-.87,3.64,1.68,1.68,0,0,1-.15.3l-.21.77a1.68,1.68,0,0,1-.17.41,11.87,11.87,0,0,1-1.58,3.29l-.07.09a1.8,1.8,0,0,1-.08.21,23.17,23.17,0,0,1-3.81,4.65,1.72,1.72,0,0,1-1.19.49,1.58,1.58,0,0,1-.61-.12C20.53,80.94,30.79,92,42.06,98.53A36.57,36.57,0,0,1,29.69,75.32c-1.11-8.22.93-15.57,5.88-21.24l.26-.29a1.09,1.09,0,0,1-.08-.15C35.71,53.54,35.66,53.45,35.62,53.35Z"/><path class="cls-2" d="M52.62,12.61a1.49,1.49,0,0,1-.72-.5,7.8,7.8,0,0,1-.76-.94A3.36,3.36,0,0,1,50.69,9a7.93,7.93,0,0,1,.14-.85,2.36,2.36,0,0,1,.3-.8c.08-.12.12-.26.2-.38a4.37,4.37,0,0,1,.31-.44c.09-.11.19-.2.29-.31A1.47,1.47,0,0,1,52.14,6a4,4,0,0,1,2.15-.77c.53,0,1.06,0,1.59.06a2.2,2.2,0,0,1,.92.32,4.58,4.58,0,0,1,1.46,1.19,3.18,3.18,0,0,1,.57,3.48c-.13.3-.26.6-.4.9a4.43,4.43,0,0,1-.29.46c-.09.14-.2.26-.28.4a1.33,1.33,0,0,1-.54.54,3,3,0,0,1-.78-.39,2.94,2.94,0,0,0-2.46-.4,2.45,2.45,0,0,0-.66.3ZM48.79,0a.33.33,0,0,1-.1.06,7.78,7.78,0,0,0-1.17.32,4.53,4.53,0,0,0-1,.58s0,.07-.08.09a4.76,4.76,0,0,0-.5.68,1.63,1.63,0,0,0-.28.63,9.38,9.38,0,0,0-.19,1.2c-.06.65-.17,1.29-.23,1.94a6,6,0,0,1-.33,1.33,2.25,2.25,0,0,0-.08.24,3.36,3.36,0,0,1-.33.95A9,9,0,0,1,44,9a3,3,0,0,1-1,1l-.87.51a5.33,5.33,0,0,0-1,.57s0,0-.07,0c-.46.15-.8.51-1.27.63l-.07,0a1.72,1.72,0,0,1-.6.31,2.52,2.52,0,0,0-.33.15,8,8,0,0,1-1.38.6,5.54,5.54,0,0,1-.69.22,8.34,8.34,0,0,1-.83.2c-.54.08-.57,0-.88-.41A.63.63,0,0,1,35,12.6c0-.23-.06-.45-.09-.68s0-.3,0-.45a1.22,1.22,0,0,0-.42-.67.08.08,0,0,0-.07,0,.91.91,0,0,0-.67.06,3.27,3.27,0,0,0-1,.69l-.1.07a3.11,3.11,0,0,0-.28.23l-.24.21-.32.25c-.1.07-.19.16-.29.22-.35.21-.69.42-1.05.61-.2.11-.43.17-.62.29a3.75,3.75,0,0,1-1,.43,2.34,2.34,0,0,0-.3.12,3,3,0,0,1-.57.2c-.7.11-1.37.3-2.08.39a9.75,9.75,0,0,1-2.75-.11c-.4-.08-.79-.17-1.19-.24-.07,0-.15,0-.27,0a1.42,1.42,0,0,0,.17.27,3.18,3.18,0,0,0,.69.57c.21.11.41.26.62.38s.47.21.71.3a3.35,3.35,0,0,0,.54.16c.24.05.49.06.73.11a7.88,7.88,0,0,0,2.42.14c.65-.06,1.29-.16,1.94-.23a1.7,1.7,0,0,1,.21,0,.54.54,0,0,1-.08.17,6.87,6.87,0,0,1-.72.71,12,12,0,0,1-1,.67,1.92,1.92,0,0,1-.25.12c-.16.07-.33.13-.48.21a3.14,3.14,0,0,1-.93.29.65.65,0,0,0-.2,0c-.05,0-.13,0-.12.12.29,0,.57,0,.85,0,.76,0,1.52-.1,2.28-.16a9.25,9.25,0,0,0,1.29-.14,14.73,14.73,0,0,0,2.94-.74l0,0a1.84,1.84,0,0,0,.6-.24.73.73,0,0,1,.33-.14c.63-.1.81-.05.76.64a.76.76,0,0,1,0,.16l-.12.52a1.42,1.42,0,0,0,.1.95.51.51,0,0,0,.25.25,1.92,1.92,0,0,0,.71.15,7.56,7.56,0,0,0,1.16-.18,2.59,2.59,0,0,0,.4-.09c.69-.22,1.35-.54,2.05-.76a.81.81,0,0,0,.18-.1c.46-.26,1-.43,1.4-.72l.12,0,.25-.13.41-.26a8.19,8.19,0,0,0,1.06-.66l.31-.2c.25-.18.51-.35.75-.55s.55-.51.85-.75a10.43,10.43,0,0,0,1.61-1.71,3.32,3.32,0,0,1,.26-.36,8.19,8.19,0,0,0,.65-.93c.08-.12.12-.28.2-.4a13.52,13.52,0,0,0,.67-1.38.59.59,0,0,0,0-.2l.24-1.36a5.94,5.94,0,0,0,0-2.3,3.71,3.71,0,0,1-.1-.48A3.15,3.15,0,0,0,48,4.79a1.74,1.74,0,0,1-.17-.45,3.23,3.23,0,0,1,0-1.45,1.33,1.33,0,0,1,1.12-1.12,5.11,5.11,0,0,1,1.7.06.21.21,0,0,1,.11,0c.28.17.57.32.83.51a2.5,2.5,0,0,1,.69.56,2.48,2.48,0,0,1,.79.85.62.62,0,0,0,.29.29,2.53,2.53,0,0,0,0-1,8.6,8.6,0,0,0-.36-1.12,3.9,3.9,0,0,0-.5-.83A2.09,2.09,0,0,0,51.6.41a3.6,3.6,0,0,0-1-.34A1,1,0,0,1,50.5,0ZM70.62,34.88C73.75,31,63.39,27,60.07,23.62a12.42,12.42,0,0,1-3.52-8v0c0-.4,0-.72,0-.93A1.61,1.61,0,0,0,55.29,13V12.9h0l-.28,0-.28,0h0V13a1.62,1.62,0,0,0-1.24,1.68c0,.21,0,.53,0,.93v0a12.47,12.47,0,0,1-3.52,8c-3.48,3.54-14.66,9.88-10,13.94a39,39,0,0,1,18.7-5A30.88,30.88,0,0,1,70.62,34.88Z"/><path class="cls-2" d="M25.37,26.78a7.93,7.93,0,0,0-.83.7,8.16,8.16,0,0,0-.88.95,12.43,12.43,0,0,0-.83,1.19c-.12.21-.26.43-.37.66l-.18.35c-.05.12-.11.23-.16.35s-.21.49-.31.73-.18.5-.27.75l-.23.77c-.06.25-.12.51-.19.76l-.15.76-.12.74c0,.13,0,.25-.05.37s0,.24-.05.36l0,.35c0,.11,0,.22,0,.34s0,.44-.05.65,0,.42,0,.62c0,.39,0,.75,0,1.07v.44c0,.14,0,.27,0,.38a2.91,2.91,0,0,0,0,.31h0v-.31c0-.12,0-.24,0-.38s0-.29,0-.45c0-.31,0-.67,0-1.07,0-.19,0-.39,0-.61s0-.42.06-.65l0-.34c0-.11,0-.23.05-.35s0-.47.09-.72.08-.49.13-.74.1-.5.15-.75.13-.5.2-.76.15-.5.23-.75.16-.51.26-.75.19-.49.3-.73.11-.23.16-.35l.18-.34c.11-.24.24-.45.36-.67.27-.42.53-.82.81-1.18a10.37,10.37,0,0,1,.86-1,9.84,9.84,0,0,1,.82-.71c.25-.19.49-.35.68-.47a4.57,4.57,0,0,1,.65-.32,4.41,4.41,0,0,0-.66.3C25.87,26.44,25.63,26.59,25.37,26.78Z"/><path class="cls-2" d="M14.74,38.62v.11h0Z"/><polygon class="cls-2" points="14.66 38.74 14.67 38.74 14.74 38.62 14.66 38.74"/><path class="cls-2" d="M37.3,53v0Z"/><polygon class="cls-2" points="10.34 45.66 10.37 45.63 10.34 45.66 10.34 45.66"/><path class="cls-2" d="M33.59,96.56c.65.39,1,.57,1,.57Z"/><path class="cls-2" d="M10.37,45.63l0,0Z"/><path class="cls-2" d="M32.23,38.71l.2-1,.14.84.87.23.48-1.09L34,39.32l1.87.43.12-.83L36.27,40l.63.08.27-.83.09,1a4,4,0,0,1,1.58,1,8.6,8.6,0,0,0-3.12-5.83l-.11.68-.5-.95-1.94-.54,0,.64-.43-.83A6.33,6.33,0,0,0,31,34.05a2,2,0,0,0,.23.61l-1-.69a19.22,19.22,0,0,0-2.66.46h0l-.19.05h0l-.17,0h0L27,34.6l-.06,0-.14,0-.08,0-.13,0-.08,0-.12,0-.09,0-.11,0-.1,0L26,35l-.1,0-.09,0h0l-.1.05-.08,0h0a.31.31,0,0,0-.1.05h0l-.05,0h0l-.11.07h0l0,0h0l-.17.11.16.42-.73-.24.09.46a9.44,9.44,0,0,0-1.21.76,9.65,9.65,0,0,1,1.19-3.67l-.39-.38.57-.15.49-1.43-.49-.49.71,0,.72-2.19-.38-.45h.55l.42-2a4.57,4.57,0,0,0-.65.32c-.19.12-.43.28-.68.47a9.84,9.84,0,0,0-.82.71,10.37,10.37,0,0,0-.86,1c-.28.36-.54.76-.81,1.18-.12.22-.25.43-.36.67l-.18.34c-.05.12-.11.24-.16.35s-.2.49-.3.73-.18.5-.26.75-.16.5-.23.75-.13.51-.2.76-.1.51-.15.75-.09.5-.13.74-.06.49-.09.72,0,.24-.05.35l0,.34c0,.23,0,.44-.06.65s0,.42,0,.61c0,.4,0,.76,0,1.07,0,.16,0,.31,0,.45s0,.26,0,.38v.31h0a2.91,2.91,0,0,1,0-.31c0-.11,0-.24,0-.38v-.44c0-.32,0-.68,0-1.07,0-.2,0-.4,0-.62s0-.43.05-.65,0-.23,0-.34l0-.35c0-.12,0-.24.05-.36s0-.24.05-.37l.12-.74.15-.76c.07-.25.13-.51.19-.76l.23-.77c.09-.25.17-.5.27-.75s.19-.49.31-.73.11-.23.16-.35l.18-.35c.11-.23.25-.45.37-.66a12.43,12.43,0,0,1,.83-1.19,8.16,8.16,0,0,1,.88-.95,7.93,7.93,0,0,1,.83-.7c.26-.19.5-.34.7-.46a4.41,4.41,0,0,1,.66-.3,9.12,9.12,0,0,0-4.8,3.33l.16.56-.48-.07L21.1,31l0,.34-.38.11L20,33.11l.5.27h-.63a12.81,12.81,0,0,0-.46,3.45,5.42,5.42,0,0,0-.88-1.3l-.26.59s-.06-.28-.17-.9l-.28-.16h0L16,34l-.15.74s-.1-.15-.51-.83a13.58,13.58,0,0,0-3.8-.65l-.17.54-.38-.65A16,16,0,0,0,9,33.09H8.74l0,.88s-.1-.12-.68-.69a9.63,9.63,0,0,0-3.38,1.35h0l-.21.13L4.07,35l.12.34-.55-.11a8.12,8.12,0,0,0-2.52,4.63l0,.11,0-.1a5.54,5.54,0,0,0-.06,1.32A10.5,10.5,0,0,1,2,39.56a5,5,0,0,0-.2.93l.12-.13.05,0L2,40.24l.06-.06.07-.06.07-.06L2.28,40l.08-.07.06,0,.09-.07.06,0,.1-.07.05,0,.11-.07,0,0L3,39.53l0,0,.14-.07h0a10.23,10.23,0,0,1,1-.44h0a12.5,12.5,0,0,1,1.8-.54l0-.56s0,.11.27.62a10,10,0,0,1,2.32-.24l.27-.68a1.93,1.93,0,0,0,.17.8c.2,0,1.25.08,1.88.13.78.11,1.44.23,1.44.23l.33-.45-.06.62,1.92.1.17-.28h0l.07-.12-.07.12h.07v0h0c0,.05,0,.13,0,.23a8.27,8.27,0,0,1,3.89.83h0a5.58,5.58,0,0,1,.6.34L19,40h0l-.22-.09h0l-.24-.09h0l-.23-.08h0l-.47-.14h-.05l-.19-.05,0,0-.2-.05-.1,0-.1,0a16.22,16.22,0,0,0-2.14-.33l.06.55-.59-.53a20.1,20.1,0,0,0-2.94.24l.19.53-.76-.48-2.2.42.17.83L8.17,40,7,40.56l.17.71-1.94.81,0,1a1.59,1.59,0,0,1-.3-.68c-.54.38-2.22,1.88-2.22,1.88l0,.64-.27-.38A10.4,10.4,0,0,0,.87,46.21l0,.57-.4-.08a10.39,10.39,0,0,0-.19,5.89c.65-1.65,1.56-1.42,1.56-1.42L2,50.75l.27.42.2-.25.07-.09.13-.16.08-.09.12-.14.08-.1.12-.13.08-.09L3.29,50l.08-.09.13-.13.06-.06.19-.19,0,0,.14-.14L4,49.29l.11-.11.08-.06.11-.1L4.39,49l.11-.09.08,0,.11-.09.06,0,.13-.1,0,0a7.64,7.64,0,0,1,2-1.09l-.07-.68,1,.65,2.56-1.78h0l0,0,.09-.79.32.72.94-.15.15-.71.44.83,2.82-1.34.35-.91.12,1.1,1.23-.3h0l.13,0,.39-1,.19.52c-4.33,8.54-11.65,35.8,19.27,53C31.91,93.69,11.71,80,22.55,47.08l.9,1-.39.59.63,3.11h.84l-.58.5.31.29-.22.37,0,2.76h0V56l1.13.07-.71.42.47.37-.63.26-.51,3.16.52-.09-.24.26.33.43L24,61s-.33,1.68-.52,2.27c0,0,2.83-2.77,3.46-4.15l-.25-.52.53,0a10.5,10.5,0,0,0,1.37-2.85l-.33-.57.49.23.24-.91-.3-.51.46.2A13.76,13.76,0,0,0,29.92,51l-.47-1.17.55.26v0h0a26.1,26.1,0,0,0-.11-4.89l-.46-.36,1.62.72.16-.11.2.37.32-.48-.16.83A14.68,14.68,0,0,1,34,47.86l.5-.3-.45.72a5.3,5.3,0,0,1,1.26,1.21h0l.12.16h0l.26.34,0,0,.11.16,0,0,.27.42,0,0a1.74,1.74,0,0,0,.11.18l0,0,.27.47,0,.07.1.19,0,.08a2.15,2.15,0,0,1,.14.26h0c.05.09.1.18.14.27l0,.09.11.22,0,.09c.05.1.09.2.14.31v0s0-.06,0-.17,0-.11,0-.16v-.1c0-.08,0-.15,0-.22a.45.45,0,0,0,0-.11,1.8,1.8,0,0,0,0-.22v-.09c0-.1,0-.2,0-.29h0c0-.1,0-.2,0-.29V51.2c0-.07,0-.14,0-.2v-.1a1.21,1.21,0,0,0,0-.19v-.34h0v-.83l0-.46v0c0-.06,0-.12,0-.18v-.06a.78.78,0,0,1,0-.16v0l-.06-.4v0l0-.17v0a.77.77,0,0,0,0-.15v0c0-.12-.05-.24-.08-.35v0c0-.05,0-.1,0-.15v0l0-.13v0l-.09-.3h0l0-.14h0l0-.12h0q-.08-.19-.15-.36h0s0-.07,0-.1h0A3.26,3.26,0,0,0,36,45l.12-.26-1.35-1,.17-.34-.63-.08.1-.45A10.9,10.9,0,0,0,26,40.14l0,0-.18,0,0,0h.06a15.14,15.14,0,0,1,2.27-.66l-.11-1.33.68,1.07L30,39l0-.91.36.8Z"/><path class="cls-2" d="M60.32,46.9C45.52,45.31,29.22,55.79,31.81,75S50.51,106,69.57,106.5l-.95-.36.08.22c-11.61-5.18-29.13-14.83-27.34-31.63S61.37,56,64.77,64c3,6.92-.42,10.84-3.34,11.29,3,2.37,7.57,4,13.51.66C86.6,69.49,78.49,48.86,60.32,46.9Z"/><path class="cls-2" d="M142.74,80.85a11.89,11.89,0,0,0,0-3.47,10.06,10.06,0,0,0-.83-2.88,5.38,5.38,0,0,0-1.44-1.92,2.58,2.58,0,0,0-1.82-.64,2.19,2.19,0,0,1-1,0h-.1a1.88,1.88,0,0,1-1.58-.29,1.71,1.71,0,0,1-.56-1.21q-3.9,6.42-7.37,12.71t-6.42,12.28v-.06c-.21.43-.57.48-1.06.16a6.48,6.48,0,0,1-1.53-1.47,10.21,10.21,0,0,1-1.28-2.13,2.45,2.45,0,0,1-.24-1.84q1.65-4.28,4.22-9.42t5.5-10.52q2.94-5.37,6.09-10.62t6-9.69a55.7,55.7,0,0,0-6,4.59c-2,1.74-3.87,3.6-5.69,5.55s-3.5,4-5.07,6a71.68,71.68,0,0,0-4.11,6,44.79,44.79,0,0,0-2.86,5.37,14.17,14.17,0,0,0-1.26,4.24c-.07.61-.43.85-1.07.72a4.62,4.62,0,0,1-2-1.07A8.16,8.16,0,0,1,109.51,79a4.35,4.35,0,0,1-.53-3,6.84,6.84,0,0,1,.64-2,70.41,70.41,0,0,1,10.26-15.4,68.06,68.06,0,0,1,6.76-6.72,51.82,51.82,0,0,1,7.56-5.48,42.66,42.66,0,0,1,8.14-3.76A32,32,0,0,1,150.92,41H151a12,12,0,0,1,5,.94,8.41,8.41,0,0,1,5,6.22,11.84,11.84,0,0,1,.06,4.37,8.1,8.1,0,0,1-.27,1.28c-.11.36-.21.72-.32,1.07a24.65,24.65,0,0,1-2.65,5.37,24.16,24.16,0,0,1-3.5,4.21,23.82,23.82,0,0,1-4.11,3.18,31.28,31.28,0,0,1-4.38,2.24,13.52,13.52,0,0,1,2,2.17,15.36,15.36,0,0,1,1.58,2.58,13.07,13.07,0,0,1,1,2.86,11.12,11.12,0,0,1,.27,2.91,22.87,22.87,0,0,1-3.71,9.69,29,29,0,0,1-7.45,7.55,35.29,35.29,0,0,1-10.21,4.86,40,40,0,0,1-11.91,1.65,20.89,20.89,0,0,1-6.15-1,15.36,15.36,0,0,1-4.94-2.6,11,11,0,0,1-3.1-3.84,7.68,7.68,0,0,1-.61-4.7,9.84,9.84,0,0,1,1.55-3.74,20.46,20.46,0,0,1,3.15-3.85,9.88,9.88,0,0,1,1.84.27c.84.18,1.68.4,2.54.66a17.08,17.08,0,0,1,2.27.89c.66.32,1,.62,1,.9a15.85,15.85,0,0,0-3.63,3,6.54,6.54,0,0,0-1.44,2.67,3.88,3.88,0,0,0,.37,2.46,5.68,5.68,0,0,0,1.74,2,9.13,9.13,0,0,0,2.8,1.36,12.15,12.15,0,0,0,3.58.51,27.4,27.4,0,0,0,15.58-5,23.86,23.86,0,0,0,5.77-5.79A17.67,17.67,0,0,0,142.74,80.85Zm7.64-35.22a14.2,14.2,0,0,0-3.39.53,20,20,0,0,0-3.55,1.39,9.81,9.81,0,0,1,1.39,1.2A7.79,7.79,0,0,1,146,50.33a5.42,5.42,0,0,1,.64,1.79,2.85,2.85,0,0,1-.26,1.79q-2.52,3.53-4.86,7.08t-4.65,7.18l.42-.21a21.12,21.12,0,0,0,3.37-1.31A27.63,27.63,0,0,0,145.1,64a32.34,32.34,0,0,0,4.46-4,18.81,18.81,0,0,0,3.5-5.29c.24-.6.47-1.22.66-1.84a13.84,13.84,0,0,0,.46-1.9,10.47,10.47,0,0,0,.1-2.08,3.77,3.77,0,0,0-.48-1.76A3,3,0,0,0,152.55,46,4.37,4.37,0,0,0,150.38,45.63Z"/><path class="cls-2" d="M175.44,75.92a31.42,31.42,0,0,1-16.88,12.77,7.07,7.07,0,0,0,.19,2.73A2,2,0,0,0,160.32,93l-.1,0a4.62,4.62,0,0,0,2.48-.16,12.75,12.75,0,0,0,3.21-1.52,26.11,26.11,0,0,0,3.65-2.86,36.74,36.74,0,0,0,3.85-4.17q1-1.28,2-2.64c.62-.91,1.22-1.77,1.79-2.59a1.85,1.85,0,0,1,1.31-.75,1.68,1.68,0,0,1,1.23.35,1.76,1.76,0,0,1,.64,1.12,2.18,2.18,0,0,1-.51,1.63l-1.33,1.92c-1.14,1.6-2.52,3.38-4.14,5.32a51.31,51.31,0,0,1-5.53,5.63,17.71,17.71,0,0,1-3.53,2.33,19.48,19.48,0,0,1-3.15,1.23,14.4,14.4,0,0,1-2.59.48c-.77,0-1.37.08-1.79.08q-4.17,0-6-2.41t-1.31-6.57a20.85,20.85,0,0,1,2.32-7.1A45.83,45.83,0,0,1,158,74.69,31.05,31.05,0,0,1,164.76,69,22.24,22.24,0,0,1,169.11,67a11.92,11.92,0,0,1,4.36-.75,4.07,4.07,0,0,1,3.31,1.47,4.58,4.58,0,0,1,.69,3.82,7.67,7.67,0,0,1-.67,2.16A13,13,0,0,1,175.39,76Zm-2.78-4.38a9.77,9.77,0,0,0-3.79,1.71,22.53,22.53,0,0,0-3.53,3.15,32.9,32.9,0,0,0-3,3.88,34.89,34.89,0,0,0-2.3,3.87,27.53,27.53,0,0,0,7.05-4.2,25.07,25.07,0,0,0,5.56-6.33v.06a2.74,2.74,0,0,0,.45-.86l.24-.75C173.38,71.58,173.16,71.4,172.66,71.54Z"/><path class="cls-2" d="M200.93,75.44a.74.74,0,0,1-.4.51,2.79,2.79,0,0,1-.83.26,5.36,5.36,0,0,1-1,.09,2.16,2.16,0,0,1-.88-.17,8.81,8.81,0,0,1,1.39,1.13,6.64,6.64,0,0,1,1.07,1.41,5.08,5.08,0,0,1,.56,1.58,2.84,2.84,0,0,1-.19,1.55l-.48.83q-.27.45-.54.93-.58,1-1.2,2.19c-.41.79-.79,1.55-1.15,2.3s-.66,1.45-.93,2.11a7.65,7.65,0,0,0-.51,1.68.18.18,0,0,1-.08.16.75.75,0,0,0-.13.11H196a9.82,9.82,0,0,0,3.1-1.76A26.36,26.36,0,0,0,202,87.54c.95-1.05,1.85-2.17,2.73-3.36s1.7-2.35,2.48-3.45a4.67,4.67,0,0,0,.64-.75c.14-.21.29-.44.43-.69s.41-.23.8-.14a3.35,3.35,0,0,1,2,1.39.69.69,0,0,1,0,.88l-1.55,2.14v0c-1.53,2.11-3.13,4.18-4.78,6.23a37.07,37.07,0,0,1-5.53,5.53,12.07,12.07,0,0,1-1.21.93,14.12,14.12,0,0,1-1.6,1,10.46,10.46,0,0,1-1.89.74,6.14,6.14,0,0,1-2.09.24,4.41,4.41,0,0,1-3.6-1.81,5.92,5.92,0,0,1-.78-4,36.44,36.44,0,0,1-4.86,3.87,9,9,0,0,1-4.7,1.69,6.36,6.36,0,0,1-3.24-1.15,6,6,0,0,1-1.79-2.22,7.45,7.45,0,0,1-.66-2.75,14.54,14.54,0,0,1,.08-2.75,12,12,0,0,1,.48-1.93,21.25,21.25,0,0,1,1.76-4.32,37.89,37.89,0,0,1,2.94-4.71,46.75,46.75,0,0,1,3.77-4.54,33,33,0,0,1,4.35-3.9A22.89,22.89,0,0,1,190.86,67a11.89,11.89,0,0,1,4.72-1,8.26,8.26,0,0,1,1.34.11,12.9,12.9,0,0,1,1.39.32,3.86,3.86,0,0,1,1.95,1.36,5.65,5.65,0,0,1,.91,2.19,11.15,11.15,0,0,1,.16,2.68A17.82,17.82,0,0,1,200.93,75.44Zm-6.25,0a1.86,1.86,0,0,1,1.25-.11,5.58,5.58,0,0,1,1.47.59.54.54,0,0,1-.16-.59.87.87,0,0,0,0-.37,1.25,1.25,0,0,1,0-.43,10,10,0,0,0,.06-1.12,3.9,3.9,0,0,0-.16-1.1,1.79,1.79,0,0,0-.54-.82,1.74,1.74,0,0,0-1-.38,6.77,6.77,0,0,0-4.06,1.42,22.21,22.21,0,0,0-4,3.71,38.16,38.16,0,0,0-3.5,4.81,37.42,37.42,0,0,0-2.48,4.65,11.77,11.77,0,0,0-.54,1.47,10.11,10.11,0,0,0-.37,1.73,6.54,6.54,0,0,0-.11,1.13,1.61,1.61,0,0,0,.24.9,1.14,1.14,0,0,0,.72.49,3.16,3.16,0,0,0,1.34-.11,5.92,5.92,0,0,0,2-1.23c.82-.68,1.68-1.47,2.59-2.38s1.8-1.88,2.67-2.91,1.61-2,2.22-2.78q.8-1.61,1.47-3.12a17.87,17.87,0,0,0,.93-2.59Z"/><path class="cls-2" d="M232.29,83.24c-1.14,1.6-2.52,3.38-4.14,5.32a51.31,51.31,0,0,1-5.53,5.63,17.71,17.71,0,0,1-3.53,2.33,19.48,19.48,0,0,1-3.15,1.23,14.4,14.4,0,0,1-2.59.48c-.77,0-1.36.08-1.79.08q-4.17,0-6-2.41t-1.31-6.57a20.85,20.85,0,0,1,2.32-7.1,45.83,45.83,0,0,1,5.21-7.54,31.26,31.26,0,0,1,2.94-2.86,29.91,29.91,0,0,1,3.85-2.8A22.24,22.24,0,0,1,222.91,67a12,12,0,0,1,4.36-.75,4,4,0,0,1,3.28,1.47,4.49,4.49,0,0,1,.67,3.71,9.54,9.54,0,0,1-1.92,4.27,2.5,2.5,0,0,1-1.31.83,1.4,1.4,0,0,1-1.12-.18,1.78,1.78,0,0,1-.65-1,2.68,2.68,0,0,1,.14-1.6,3.67,3.67,0,0,0,.75-1.71.46.46,0,0,0-.08-.4q-.14-.13-.57,0a10.21,10.21,0,0,0-4.24,2.08,27.06,27.06,0,0,0-3.93,3.8,33.25,33.25,0,0,0-3.21,4.46A28.79,28.79,0,0,0,213,86l-.59,2.13a12.19,12.19,0,0,0-.1,1.58,5.46,5.46,0,0,0,.18,1.44,3.36,3.36,0,0,0,.59,1.18,1.84,1.84,0,0,0,1,.66l-.1,0a4.62,4.62,0,0,0,2.48-.16,12.75,12.75,0,0,0,3.21-1.52,26.74,26.74,0,0,0,3.66-2.86,37.64,37.64,0,0,0,3.84-4.17q1-1.28,1.95-2.64L231,79a1.87,1.87,0,0,1,1.34-.75,1.9,1.9,0,0,1,1.28.32,1.52,1.52,0,0,1,.64,1.09,2.37,2.37,0,0,1-.59,1.69Z"/><path class="cls-2" d="M257.77,86.5q-1,1.4-2.67,3.37a44.79,44.79,0,0,1-3.63,3.84,26.29,26.29,0,0,1-4,3.18,7.3,7.3,0,0,1-3.87,1.31,5.73,5.73,0,0,1-2.14-.4,3.81,3.81,0,0,1-1.65-1.26,5.06,5.06,0,0,1-.88-2.21,8.86,8.86,0,0,1,.13-3.24,29.8,29.8,0,0,1,.93-3.15c.38-1,.84-2.12,1.39-3.26s1.19-2.37,1.9-3.71,1.53-2.84,2.46-4.51a16.92,16.92,0,0,0,1-2,7.25,7.25,0,0,0,.51-1.52l-2.57,2.19q-2.09,1.71-3.87,3.47c-1.19,1.18-2.41,2.44-3.66,3.8q-1.92,3.52-3.53,7.07a45.57,45.57,0,0,0-2.56,7.24c-.14.4-.52.57-1.12.54a5.45,5.45,0,0,1-1.9-.51,6.61,6.61,0,0,1-1.76-1.15,1.7,1.7,0,0,1-.72-1.39,41.37,41.37,0,0,1,2-6.57,71.88,71.88,0,0,1,3-6.62q1.71-3.31,3.68-6.63t4-6.57l2.14-3.42q1.21-2,2.43-4.14t2.29-4.14c.73-1.35,1.41-2.66,2-3.93s1.15-2.43,1.58-3.5a2.41,2.41,0,0,1,2,0,5.85,5.85,0,0,1,2.09,1.42,6.52,6.52,0,0,1,1.41,2.21,3.19,3.19,0,0,1,0,2.43c-.25.54-.66,1.3-1.25,2.3s-1.26,2.11-2,3.34-1.54,2.51-2.37,3.85-1.65,2.61-2.43,3.82l-.91,1.39a23,23,0,0,1,3.66-2.14,11.07,11.07,0,0,1,3.66-1A2.19,2.19,0,0,1,254,67a6.47,6.47,0,0,1,1.25,1.63,6,6,0,0,1,.7,2.09,3.63,3.63,0,0,1-.22,2q-1.38,2.73-2.72,5.1l-2.3,4.09c-.57,1-1.09,1.92-1.58,2.75s-.9,1.67-1.28,2.49-.71,1.65-1,2.51a27.93,27.93,0,0,0-.83,2.78,1.15,1.15,0,0,1,.37-.32h0a23,23,0,0,0,3.95-2.73,32.42,32.42,0,0,0,4.92-5.23c.46-.57.9-1.13,1.31-1.66l1.2-1.6,1-1.55c.15-.18.41-.23.81-.14a2.94,2.94,0,0,1,1.09.51,2.78,2.78,0,0,1,.8.88.7.7,0,0,1,0,.88l0-.1-3.63,5.13Z"/><path class="cls-2" d="M310.83,42.74a16.81,16.81,0,0,1,2.27-.26q1.09-.06,2.16-.06a17.58,17.58,0,0,1,7.29,1.31A10.74,10.74,0,0,1,327,47.2a11.14,11.14,0,0,1,2,4.92,17.73,17.73,0,0,1-.08,5.58,25.26,25.26,0,0,1-3.07,8.63,35.76,35.76,0,0,1-5.67,7.4,47.1,47.1,0,0,1-7.34,6,55.19,55.19,0,0,1-8.15,4.51,51.7,51.7,0,0,1-8.09,2.86,28.82,28.82,0,0,1-7.11,1,13.52,13.52,0,0,1-3.53-.59q-2.72,5-4.62,9.4a56.29,56.29,0,0,0-2.8,7.8q-.37,1.4-1.2,1.47a1.94,1.94,0,0,1-1.61-.75,6,6,0,0,1-1.23-2.35,7.47,7.47,0,0,1-.13-3.39,38.15,38.15,0,0,1,2.19-7.08q1.61-4,3.9-8.52a8.9,8.9,0,0,1-2-6.2l.06.11a2.48,2.48,0,0,1,.85-2,9.2,9.2,0,0,1,2.83-1.77,16,16,0,0,0,1,4.81q2.13-3.9,4.54-7.82t4.86-7.67q2.46-3.73,4.86-7.13c1.6-2.26,3.14-4.32,4.6-6.17a42.07,42.07,0,0,0-6.42,4.38,73,73,0,0,0-6.19,5.69q-3,3.07-5.61,6.33a73.57,73.57,0,0,0-4.6,6.33,47.08,47.08,0,0,0-3.2,5.74,14.08,14.08,0,0,0-1.39,4.54.86.86,0,0,1-1.07.86,4.06,4.06,0,0,1-2-.94,6.94,6.94,0,0,1-1.84-2.27,4.73,4.73,0,0,1-.51-3.1c.07-.32.14-.64.21-1a3.43,3.43,0,0,1,.38-1v0a51.26,51.26,0,0,1,4.16-8,64.29,64.29,0,0,1,5.64-7.59,62.76,62.76,0,0,1,6.81-6.73,53.1,53.1,0,0,1,7.7-5.45,44.43,44.43,0,0,1,8.28-3.74,32.87,32.87,0,0,1,8.65-1.63Zm-.43,4.65a15.87,15.87,0,0,0-2.54.43,16.83,16.83,0,0,0-2.7.91,6.89,6.89,0,0,1,1.52,1.06A6.81,6.81,0,0,1,308,51.37a5.43,5.43,0,0,1,.72,1.84,2.93,2.93,0,0,1-.29,1.93q-2.67,2.94-5.37,6.36t-5.29,7q-2.6,3.63-5,7.42t-4.57,7.48a3.27,3.27,0,0,0,.88.11H290a20.69,20.69,0,0,0,6-1,36.88,36.88,0,0,0,6.43-2.67,41.71,41.71,0,0,0,6.36-4.12,40.61,40.61,0,0,0,5.66-5.29,35.12,35.12,0,0,0,4.41-6.17,24.18,24.18,0,0,0,2.59-6.75,12.06,12.06,0,0,0,0-3.29A6.82,6.82,0,0,0,320.07,51a8.54,8.54,0,0,0-3.39-2.57A15.49,15.49,0,0,0,310.4,47.39Z"/><path class="cls-2" d="M342.29,75.44a.71.71,0,0,1-.4.51,2.62,2.62,0,0,1-.83.26,5.33,5.33,0,0,1-1,.09,2.21,2.21,0,0,1-.89-.17,8.38,8.38,0,0,1,1.39,1.13,6,6,0,0,1,1.07,1.41,4.83,4.83,0,0,1,.56,1.58A2.75,2.75,0,0,1,342,81.8c-.15.25-.31.52-.48.83s-.36.61-.54.93q-.58,1-1.2,2.19c-.41.79-.79,1.55-1.15,2.3s-.67,1.45-.93,2.11a7.65,7.65,0,0,0-.51,1.68.18.18,0,0,1-.08.16l-.14.11h.38a9.82,9.82,0,0,0,3.1-1.76,28.25,28.25,0,0,0,2.91-2.81q1.41-1.58,2.72-3.36c.88-1.2,1.7-2.35,2.49-3.45a5.25,5.25,0,0,0,.64-.75c.14-.21.28-.44.43-.69s.41-.23.8-.14a3.22,3.22,0,0,1,1.12.51,3,3,0,0,1,.85.88.67.67,0,0,1,0,.88l-1.54,2.14v0c-1.54,2.11-3.13,4.18-4.79,6.23a36.6,36.6,0,0,1-5.53,5.53,13.07,13.07,0,0,1-1.2.93,14.12,14.12,0,0,1-1.6,1,10.28,10.28,0,0,1-1.9.74,6.06,6.06,0,0,1-2.08.24,4.44,4.44,0,0,1-3.61-1.81,6,6,0,0,1-.77-4,37.76,37.76,0,0,1-4.86,3.87A9,9,0,0,1,319.85,98a6.33,6.33,0,0,1-3.23-1.15,5.86,5.86,0,0,1-1.79-2.22,7.66,7.66,0,0,1-.67-2.75,16.42,16.42,0,0,1,.08-2.75,14.6,14.6,0,0,1,.48-1.93,21.93,21.93,0,0,1,1.77-4.32,37.89,37.89,0,0,1,2.94-4.71,48.12,48.12,0,0,1,3.76-4.54,33.11,33.11,0,0,1,4.36-3.9A23.1,23.1,0,0,1,332.22,67,11.93,11.93,0,0,1,337,66a8.36,8.36,0,0,1,1.34.11,13.47,13.47,0,0,1,1.39.32,3.86,3.86,0,0,1,1.95,1.36,5.64,5.64,0,0,1,.9,2.19,10.66,10.66,0,0,1,.16,2.68A15.75,15.75,0,0,1,342.29,75.44Zm-6.25,0a1.89,1.89,0,0,1,1.26-.11,5.58,5.58,0,0,1,1.47.59.54.54,0,0,1-.16-.59.88.88,0,0,0,0-.37,1.25,1.25,0,0,1,0-.43,10,10,0,0,0,0-1.12,3.57,3.57,0,0,0-.16-1.1,1.7,1.7,0,0,0-.53-.82,1.74,1.74,0,0,0-1-.38,6.79,6.79,0,0,0-4.06,1.42,22.16,22.16,0,0,0-4,3.71,37.2,37.2,0,0,0-3.5,4.81A39,39,0,0,0,323,85.7a11.91,11.91,0,0,0-.53,1.47A11.21,11.21,0,0,0,322,88.9a6.49,6.49,0,0,0-.1,1.13,1.61,1.61,0,0,0,.24.9,1.14,1.14,0,0,0,.72.49,3.11,3.11,0,0,0,1.33-.11,5.85,5.85,0,0,0,2-1.23c.81-.68,1.68-1.47,2.59-2.38s1.79-1.88,2.67-2.91,1.61-2,2.22-2.78c.53-1.07,1-2.11,1.46-3.12a16.94,16.94,0,0,0,.94-2.59Z"/><path class="cls-2" d="M369.22,87.62q-1.5,1.81-3.31,3.71a32.78,32.78,0,0,1-3.85,3.45,20.6,20.6,0,0,1-4.22,2.51,9.53,9.53,0,0,1-4.33.86,4.31,4.31,0,0,1-2.08-.59,3.58,3.58,0,0,1-1.31-1.42,5.42,5.42,0,0,1-.56-2,8.56,8.56,0,0,1,.11-2.35,15.82,15.82,0,0,1,1.06-3.31,19.93,19.93,0,0,1,1.63-2.94c.63-.93,1.29-1.84,2-2.73s1.46-1.8,2.24-2.72l1.28-1.5v.06l1.55-1.82a4.58,4.58,0,0,1,1.15-1.07,8.42,8.42,0,0,1,2.27-.91q-.75.16-1.23.24c-.32.06-.6.12-.85.19l-1.39.32a5.75,5.75,0,0,1-1.6.11h-.54q-1.44,1.82-2.72,3.55c-.86,1.16-1.66,2.25-2.41,3.29v-.06c-.14.22-.39.27-.74.16a2.71,2.71,0,0,1-1-.56,3.3,3.3,0,0,1-.77-.91.7.7,0,0,1,0-.88v.06c1-1.36,1.91-2.54,2.62-3.56s1.35-1.91,1.92-2.7A3.28,3.28,0,0,1,354,72,6.84,6.84,0,0,1,355.17,69c.6-.86,1.32-1.85,2.14-3l1-1.55a20,20,0,0,0,1.15-2.09c.49.29,1,.58,1.49.89a5.69,5.69,0,0,1,1.31,1.06,3.73,3.73,0,0,1,.94,3.24c-.08.32-.16.66-.27,1a6.17,6.17,0,0,1-.59,1.31l-2.24,2.4c-.18.22-.09.24.26.08a15.38,15.38,0,0,0,1.55-.83c.68-.39,1.45-.85,2.3-1.39s1.69-1.06,2.51-1.6,1.54-1,2.17-1.49A14.46,14.46,0,0,0,370.24,66a1.51,1.51,0,0,1,.8.32,7.74,7.74,0,0,1,.93.72c.3.27.57.52.8.75a2.53,2.53,0,0,1,.4.45,2.78,2.78,0,0,1,0,2.16,12,12,0,0,1-1.41,2.76,36.13,36.13,0,0,1-2.41,3.18q-1.41,1.68-3,3.44c-.61.64-1.2,1.28-1.76,1.92s-1.14,1.31-1.71,2l-1.45,1.71c-.53.64-1.05,1.29-1.55,1.95a17.1,17.1,0,0,0-1.28,2,5.49,5.49,0,0,0-.64,1.6c-.07.22.11.32.53.32a3,3,0,0,0,1.55-.4,12.41,12.41,0,0,0,2.09-1.28,23.91,23.91,0,0,0,2.3-1.95,21.58,21.58,0,0,0,2.19-2.46h-.06c.93-1.14,1.8-2.26,2.62-3.36s1.48-2,2-2.83a.71.71,0,0,1,.8-.08,3.07,3.07,0,0,1,1,.61,3.25,3.25,0,0,1,.75,1,.8.8,0,0,1-.05.93l.05-.1L371.84,84l-2.51,3.58Z"/><path class="cls-2" d="M399.62,82.17q-1.81,2.46-4,5.29a49,49,0,0,1-4.67,5.24,26.31,26.31,0,0,1-5.26,4,11.57,11.57,0,0,1-5.77,1.57,6.3,6.3,0,0,1-4.68-2,9.6,9.6,0,0,1-2.27-4.8q-.54,1.33-1,2.64a27.42,27.42,0,0,0-.77,2.64c-.15.4-.52.57-1.12.54a5.45,5.45,0,0,1-1.9-.51,6.61,6.61,0,0,1-1.76-1.15,1.74,1.74,0,0,1-.73-1.39,41.43,41.43,0,0,1,2-6.57,71.88,71.88,0,0,1,3-6.62c1.14-2.21,2.36-4.42,3.68-6.63s2.64-4.4,4-6.57l2.13-3.42q1.23-2,2.43-4.14c.81-1.41,1.57-2.79,2.3-4.14s1.41-2.66,2-3.93,1.15-2.43,1.58-3.5a2.41,2.41,0,0,1,2,0,5.85,5.85,0,0,1,2.09,1.42,6.52,6.52,0,0,1,1.41,2.21,3.19,3.19,0,0,1,0,2.43c-.25.54-.67,1.3-1.25,2.3s-1.26,2.11-2,3.34-1.54,2.51-2.38,3.85-1.64,2.61-2.43,3.82l-.9,1.39A23,23,0,0,1,389,67.32a10.94,10.94,0,0,1,3.66-1,2.41,2.41,0,0,1,1.52.67,6,6,0,0,1,2,3.72,3,3,0,0,1-.32,2,28.49,28.49,0,0,1-2.08,3.66l-2.3,3.45c-.71,1-1.38,2-2,3.07a15,15,0,0,0-1.58,3.82A11.09,11.09,0,0,1,385.17,85a7.17,7.17,0,0,1-1.6-1.82,4.87,4.87,0,0,1-.7-1.81,6,6,0,0,1,0-1.69,5.67,5.67,0,0,1,.49-1.49,7.22,7.22,0,0,1,.58-1c.86-1,1.57-1.94,2.14-2.72l1.39-1.92a16.84,16.84,0,0,1-2.62,2.56Q382.47,77,380.49,79a18.57,18.57,0,0,0-2.11,3.5,14.73,14.73,0,0,0-1,2.91,6.29,6.29,0,0,0,.06,2.72,5.22,5.22,0,0,0,1,2,4.29,4.29,0,0,0,1.66,1.22,5.05,5.05,0,0,0,2,.41,9.24,9.24,0,0,0,4.4-1.31,21.89,21.89,0,0,0,4.14-3.13,38.17,38.17,0,0,0,3.69-4c1.14-1.45,2.16-2.79,3.05-4a.84.84,0,0,1,.85-.1,3.2,3.2,0,0,1,1.1.53,3,3,0,0,1,.8.88.7.7,0,0,1,0,.88l.06-.1Z"/></g></g></svg>